<?xml version="1.0" encoding="UTF-8" standalone="no"?>
<!-- Created with Inkscape (http://www.inkscape.org/) -->

<svg
   xmlns:dc="http://purl.org/dc/elements/1.1/"
   xmlns:cc="http://creativecommons.org/ns#"
   xmlns:rdf="http://www.w3.org/1999/02/22-rdf-syntax-ns#"
   xmlns:svg="http://www.w3.org/2000/svg"
   xmlns="http://www.w3.org/2000/svg"
   xmlns:sodipodi="http://sodipodi.sourceforge.net/DTD/sodipodi-0.dtd"
   xmlns:inkscape="http://www.inkscape.org/namespaces/inkscape"
   width="709.71881"
   height="709.71881"
   viewBox="0 0 709.71881 709.71878"
   id="svg4070"
   version="1.1"
   inkscape:version="0.91 r13725"
   sodipodi:docname="elevate_no_txt.svg"
   inkscape:export-filename="/Users/jertle/Code/nike-inc.github.io/img/projects/willow_no_txt.png"
   inkscape:export-xdpi="90"
   inkscape:export-ydpi="90">
  <defs
     id="defs4072" />
  <sodipodi:namedview
     id="base"
     pagecolor="#ffffff"
     bordercolor="#666666"
     borderopacity="1.0"
     inkscape:pageopacity="0.0"
     inkscape:pageshadow="2"
     inkscape:zoom="0.29556473"
     inkscape:cx="-608.88287"
     inkscape:cy="181.7949"
     inkscape:document-units="px"
     inkscape:current-layer="layer1"
     showgrid="false"
     fit-margin-top="5"
     fit-margin-left="5"
     fit-margin-right="5"
     fit-margin-bottom="5"
     inkscape:window-width="1756"
     inkscape:window-height="851"
     inkscape:window-x="461"
     inkscape:window-y="311"
     inkscape:window-maximized="0"
     inkscape:showpageshadow="true"
     borderlayer="false"
     units="px" />
  <metadata
     id="metadata4075">
    <rdf:RDF>
      <cc:Work
         rdf:about="">
        <dc:format>image/svg+xml</dc:format>
        <dc:type
           rdf:resource="http://purl.org/dc/dcmitype/StillImage" />
        <dc:title></dc:title>
      </cc:Work>
    </rdf:RDF>
  </metadata>
  <g
     inkscape:label="Layer 1"
     inkscape:groupmode="layer"
     id="layer1"
     transform="translate(-1745.1406,236.7829)">
    <g
       transform="translate(-3.7511454,2.0408588)"
       id="layer1-6"
       inkscape:label="Layer 1">
      <g
         transform="matrix(13.831686,0,0,13.831686,1756.9686,-271.86802)"
         id="g3424">
        <path
           id="path3426"
           d="m 43.5,9.5 0,30.1 -18.5,8.5 0,0 0,0 -18.5,-8.5 0,-30.1 37,0 m 4.4,-4.4 -45.8,0 0,37.3 22,10 1,0 1,0 22,-10 0,-37.3 -0.2,0 z"
           inkscape:connector-curvature="0" />
        <g
           id="g3428">
          <g
             id="g3430">
            <polygon
               id="polygon3432"
               points="14.5,23.6 14.4,20.4 25,15.4 35.5,20.3 35.6,23.6 25,18.7 " />
          </g>
          <g
             id="g3434">
            <g
               id="g3436">
              <polygon
                 id="polygon3438"
                 points="14.5,29.9 14.4,26.6 25,21.7 35.5,26.6 35.6,29.9 25,24.9 " />
            </g>
          </g>
          <g
             id="g3440">
            <g
               id="g3442">
              <polygon
                 id="polygon3444"
                 points="14.5,36.1 14.4,32.9 25,27.9 35.5,32.8 35.6,36.1 25,31.2 " />
            </g>
          </g>
        </g>
      </g>
    </g>
  </g>
</svg>
