<?xml version="1.0" encoding="UTF-8" standalone="no"?>
<!-- Created with Inkscape (http://www.inkscape.org/) -->

<svg
   xmlns:dc="http://purl.org/dc/elements/1.1/"
   xmlns:cc="http://creativecommons.org/ns#"
   xmlns:rdf="http://www.w3.org/1999/02/22-rdf-syntax-ns#"
   xmlns:svg="http://www.w3.org/2000/svg"
   xmlns="http://www.w3.org/2000/svg"
   xmlns:sodipodi="http://sodipodi.sourceforge.net/DTD/sodipodi-0.dtd"
   xmlns:inkscape="http://www.inkscape.org/namespaces/inkscape"
   width="709.71881"
   height="709.71881"
   viewBox="0 0 709.71881 709.71878"
   id="svg4070"
   version="1.1"
   inkscape:version="0.91 r13725"
   sodipodi:docname="nike-inc.github.io_no_txt.svg"
   inkscape:export-filename="/Users/jertle/Code/nike-inc.github.io/img/projects/willow_no_txt.png"
   inkscape:export-xdpi="90"
   inkscape:export-ydpi="90">
  <defs
     id="defs4072" />
  <sodipodi:namedview
     id="base"
     pagecolor="#ffffff"
     bordercolor="#666666"
     borderopacity="1.0"
     inkscape:pageopacity="0.0"
     inkscape:pageshadow="2"
     inkscape:zoom="0.29556473"
     inkscape:cx="-700.23342"
     inkscape:cy="181.7949"
     inkscape:document-units="px"
     inkscape:current-layer="layer1"
     showgrid="false"
     fit-margin-top="5"
     fit-margin-left="5"
     fit-margin-right="5"
     fit-margin-bottom="5"
     inkscape:window-width="1756"
     inkscape:window-height="851"
     inkscape:window-x="228"
     inkscape:window-y="511"
     inkscape:window-maximized="0"
     inkscape:showpageshadow="true"
     borderlayer="false"
     units="px" />
  <metadata
     id="metadata4075">
    <rdf:RDF>
      <cc:Work
         rdf:about="">
        <dc:format>image/svg+xml</dc:format>
        <dc:type
           rdf:resource="http://purl.org/dc/dcmitype/StillImage" />
        <dc:title></dc:title>
      </cc:Work>
    </rdf:RDF>
  </metadata>
  <g
     inkscape:label="Layer 1"
     inkscape:groupmode="layer"
     id="layer1"
     transform="translate(-1745.1406,236.7829)">
    <path
       d="m 2098.701,-146.13787 c 70.9208,0 137.5967,27.61818 187.7467,77.766604 50.1484,50.150029 77.7666,116.825856 77.7666,187.746696 0,70.92084 -27.6182,137.59667 -77.7666,187.74669 -50.15,50.14682 -116.8259,77.76661 -187.7467,77.76661 -70.9208,0 -137.5967,-27.61979 -187.7467,-77.76661 -50.1484,-50.15002 -77.7666,-116.82585 -77.7666,-187.74669 0,-70.92084 27.6182,-137.596667 77.7666,-187.746696 50.15,-50.148424 116.8259,-77.766604 187.7467,-77.766604 m 0,-63.97911 c -181.9742,0 -329.4924,147.518229 -329.4924,329.49241 0,181.97417 147.5182,329.4924 329.4924,329.4924 181.9742,0 329.4924,-147.51823 329.4924,-329.4924 0,-181.974181 -147.5182,-329.49241 -329.4924,-329.49241 l 0,0 z m 216.3294,346.33491 0.3806,-3.9603 c -23.7298,-2.30165 -47.3333,-2.50639 -70.2602,-0.75656 3.6852,-11.76256 5.6269,-25.04622 5.4862,-40.153286 -0.3007,-32.09352 -11.0028,-57.088558 -27.8213,-77.833784 3.2309,-19.5392196 0.7965,-39.07684 -5.2975,-58.622462 -24.0305,1.967357 -45.6603,9.838387 -64.918,23.512327 -35.9914,-7.300016 -71.9781,-7.765464 -107.9695,0 -22.4631,-15.161454 -44.5215,-22.595826 -66.2392,-23.512327 -6.4379,21.522577 -7.4312,42.7364494 -1.9866,63.595238 -18.9474,20.105435 -26.1882,44.510266 -25.8331,71.535041 0.2031,15.470153 2.5863,29.236853 6.9849,41.407283 -22.5926,-1.65706 -45.8138,-1.43314 -69.1678,0.82853 l 0.3823,3.9603 c 23.7826,-2.30804 47.4277,-2.49998 70.3962,-0.70217 0.8429,2.04413 1.6922,4.08187 2.6599,6.02843 -24.8863,-0.65578 -47.2822,1.50511 -68.2561,6.66343 l 0.9469,3.85794 c 21.289,-5.23189 44.0912,-7.33841 69.5533,-6.48269 16.8377,29.91504 49.2543,47.4933 96.4581,53.07387 -10.966,8.9059 -16.8633,19.41286 -18.3812,31.30178 0,0 -4.9632,0 -24.9999,0 -33.5762,0 -42.73,-42.81162 -77.5059,-38.5874 33.7378,16.73214 26.9992,70.21068 80.9864,70.21068 18.1429,0 22.0008,0 22.6822,0 l 0,49.02078 c 0.2399,7.92062 -3.2086,13.21969 -8.7779,16.89049 19.3344,1.95296 33.8641,-7.69989 33.8641,-19.54082 0,-11.84093 0,-59.02392 0,-64.79804 0,-5.77411 6.0444,-6.22037 6.0444,-6.22037 l 0,75.65529 c 0.2559,7.52875 -3.4037,11.80895 -7.2872,15.89721 17.0328,0.67978 33.0548,-2.72231 33.781,-17.21997 0,0 0,-68.76634 0,-72.40675 0,-3.64042 5.9644,-3.72999 5.9644,0 0,3.72998 0,69.00946 0,69.00946 0.176,12.2296 10.7389,22.14476 33.1172,20.61726 -5.9868,-4.81922 -7.8246,-9.69123 -7.8246,-16.74013 0,-7.0473 0,-74.81237 0,-74.81237 0,0 6.1676,-0.31349 6.1676,6.22037 0,6.53547 0,52.16536 0,63.10099 0,14.04182 16.8585,19.83673 36.0986,19.2929 -6.302,-4.72166 -10.5694,-10.35502 -10.5966,-17.88536 l 0,-75.88401 c -0.651,-11.15476 -5.1855,-21.66973 -14.0786,-31.46653 43.1507,-6.62503 74.251,-23.84821 89.7371,-54.71973 25.5453,-0.87811 48.4178,1.2252 69.7612,6.47309 l 0.9469,-3.85794 c -21.1371,-5.19511 -43.7185,-7.356 -68.8367,-6.64903 0.8685,-1.96096 1.7306,-3.92832 2.4744,-5.99644 23.2084,-1.8634 47.1174,-1.68105 71.164,0.65578 z m -360.308,61.54311 c -1.0604,0 -1.921,-0.611 -1.921,-1.36116 0,-0.75335 0.8606,-1.36435 1.921,-1.36435 1.0621,0 1.921,0.611 1.921,1.36435 0,0.75016 -0.8589,1.36116 -1.921,1.36116 z m 6.0476,4.12505 c -1.1788,0 -2.1369,-0.67818 -2.1369,-1.51311 0,-0.83492 0.9581,-1.5147 2.1369,-1.5147 1.1757,0 2.1338,0.67978 2.1338,1.5147 0,0.83493 -0.9581,1.51311 -2.1338,1.51311 z m 6.1324,5.35825 c -1.3835,0 -2.5031,-0.79334 -2.5031,-1.77382 0,-0.98048 1.1196,-1.77542 2.5031,-1.77542 1.382,0 2.5032,0.79494 2.5032,1.77542 0,0.98048 -1.1212,1.77382 -2.5032,1.77382 z m 5.9597,6.4331 c -1.6171,0 -2.9286,-0.9309 -2.9286,-2.07932 0,-1.14363 1.3115,-2.07453 2.9286,-2.07453 1.6155,0 2.9254,0.9309 2.9254,2.07453 0,1.14842 -1.3099,2.07932 -2.9254,2.07932 z m 6.5643,7.27122 c -1.7963,0 -3.2534,-1.03326 -3.2534,-2.30804 0,-1.27479 1.4571,-2.30805 3.2534,-2.30805 1.7962,0 3.2533,1.03326 3.2533,2.30805 0,1.27478 -1.4571,2.30804 -3.2533,2.30804 z m 7.6007,7.37839 c -1.9962,0 -3.6164,-1.14522 -3.6164,-2.56236 0,-1.41554 1.6202,-2.56556 3.6164,-2.56556 1.9945,0 3.6148,1.15002 3.6148,2.56556 -0,1.41714 -1.6203,2.56236 -3.6148,2.56236 z m 10.2782,7.02491 c -2.2201,0 -4.0179,-1.27638 -4.0179,-2.85027 0,-1.57388 1.7978,-2.85187 4.0179,-2.85187 2.2169,0 4.0147,1.27799 4.0147,2.85187 0,1.57389 -1.7978,2.85027 -4.0147,2.85027 z m 12.7383,3.75557 c -2.2169,0 -4.0163,-1.27798 -4.0163,-2.84867 0,-1.57388 1.7994,-2.85186 4.0163,-2.85186 2.22,0 4.0162,1.27798 4.0162,2.85186 0,1.57229 -1.7962,2.84867 -4.0162,2.84867 z m 13.4324,0.43346 c -2.2201,0 -4.0163,-1.27638 -4.0163,-2.84707 0,-1.57388 1.7962,-2.85187 4.0163,-2.85187 2.2168,0 4.0163,1.27799 4.0163,2.85187 -0,1.57069 -1.8011,2.84707 -4.0163,2.84707 z m 13.2564,0.25752 c -2.2168,0 -4.0162,-1.27479 -4.0162,-2.84867 0,-1.57229 1.7994,-2.85187 4.0162,-2.85187 2.2201,0 4.0179,1.27958 4.0179,2.85187 0,1.57388 -1.7978,2.84867 -4.0179,2.84867 z"
       id="github-2-circle-outline-icon"
       inkscape:connector-curvature="0" />
  </g>
</svg>
