<?xml version="1.0" encoding="UTF-8" standalone="no"?>
<!-- Created with Inkscape (http://www.inkscape.org/) -->

<svg
   xmlns:dc="http://purl.org/dc/elements/1.1/"
   xmlns:cc="http://creativecommons.org/ns#"
   xmlns:rdf="http://www.w3.org/1999/02/22-rdf-syntax-ns#"
   xmlns:svg="http://www.w3.org/2000/svg"
   xmlns="http://www.w3.org/2000/svg"
   xmlns:sodipodi="http://sodipodi.sourceforge.net/DTD/sodipodi-0.dtd"
   xmlns:inkscape="http://www.inkscape.org/namespaces/inkscape"
   width="709.71881"
   height="709.71881"
   viewBox="0 0 709.71881 709.71878"
   id="svg4070"
   version="1.1"
   inkscape:version="0.91 r13725"
   sodipodi:docname="wingtips_no_txt.svg"
   inkscape:export-filename="/Users/jertle/Code/nike-inc.github.io/img/projects/willow_no_txt.png"
   inkscape:export-xdpi="90"
   inkscape:export-ydpi="90">
  <defs
     id="defs4072" />
  <sodipodi:namedview
     id="base"
     pagecolor="#ffffff"
     bordercolor="#666666"
     borderopacity="1.0"
     inkscape:pageopacity="0.0"
     inkscape:pageshadow="2"
     inkscape:zoom="0.29556473"
     inkscape:cx="-1436.1128"
     inkscape:cy="181.7949"
     inkscape:document-units="px"
     inkscape:current-layer="layer1"
     showgrid="false"
     fit-margin-top="5"
     fit-margin-left="5"
     fit-margin-right="5"
     fit-margin-bottom="5"
     inkscape:window-width="1935"
     inkscape:window-height="801"
     inkscape:window-x="300"
     inkscape:window-y="289"
     inkscape:window-maximized="0"
     inkscape:showpageshadow="true"
     borderlayer="false"
     units="px" />
  <metadata
     id="metadata4075">
    <rdf:RDF>
      <cc:Work
         rdf:about="">
        <dc:format>image/svg+xml</dc:format>
        <dc:type
           rdf:resource="http://purl.org/dc/dcmitype/StillImage" />
        <dc:title></dc:title>
      </cc:Work>
    </rdf:RDF>
  </metadata>
  <g
     inkscape:label="Layer 1"
     inkscape:groupmode="layer"
     id="layer1"
     transform="translate(-1745.1406,236.7829)">
    <g
       id="g3963"
       transform="matrix(2.8095238,0,0,2.8095238,1748.8095,-233.11403)"
       inkscape:export-xdpi="90"
       inkscape:export-ydpi="90">
      <g
         id="Layer_11_xA0_Image_1_">
        <path
           id="path3942"
           d="m 125,245 0,0 C 59,245 5,191 5,125 l 0,0 C 5,59 59,5 125,5 l 0,0 c 66,0 120,54 120,120 l 0,0 c 0,66 -54,120 -120,120 z"
           inkscape:connector-curvature="0" />
        <path
           id="path3944"
           d="m 125,225 0,0 C 70,225 25,180 25,125 l 0,0 C 25,70 70,25 125,25 l 0,0 c 55,0 100,45 100,100 l 0,0 c 0,55 -45,100 -100,100 z"
           class="st0"
           inkscape:connector-curvature="0"
           style="fill:#ffffff" />
      </g>
      <path
         id="path3946"
         d="m 56.8,84.6 c -2.2,3.1 0,14.5 4.6,15.7 4.6,1.2 40.1,-27.6 67.4,-27.6 27.3,0 50.5,11.4 50.5,11.4 0,0 -4.8,-14.7 -9.7,-19.1 -4.8,-4.4 -20.5,-9.9 -42.8,-9.9 -22.2,0 -67.9,26.4 -70,29.5 z"
         class="st1"
         inkscape:connector-curvature="0"
         style="clip-rule:evenodd;fill-rule:evenodd" />
      <g
         id="g3948">
        <path
           id="path3950"
           d="m 25,125 0,15.2 c 0.5,0.6 1,1.2 1.5,1.7 C 25.5,136.4 25,130.8 25,125 Z"
           inkscape:connector-curvature="0" />
        <path
           id="path3952"
           d="m 25,107.3 0,17.7 c 0,-5.4 0.4,-10.6 1.3,-15.8 -0.5,-0.6 -0.9,-1.3 -1.3,-1.9 z"
           inkscape:connector-curvature="0" />
        <path
           id="path3954"
           d="m 96.5,188.2 c 45,0 52.1,-30.9 52.1,-30.9 0,0 11,18.9 42.2,18.9 31.2,0 9.1,-54.4 6,-58.1 -3.1,-3.7 -13.4,-3.6 -13.4,-3.6 0,0 14.5,44.2 3.6,44.2 -26.8,0.7 -47.1,-43.5 -47.1,-43.5 0,0 2.2,52.2 -43.5,51.5 C 68.1,166.3 41.7,133 26.3,109.1 25.5,114.2 25,119.5 25,124.9 l 0,0 c 0,5.8 0.5,11.4 1.5,16.9 15.8,19 43.2,46.4 70,46.4 z"
           inkscape:connector-curvature="0" />
      </g>
    </g>
  </g>
</svg>
